#!OML:ASF F:\VICON\USERDATA\INSTALL\rory3\rory3.ASF
:FULLY-SPECIFIED
:DEGREES
2063
root -1.52032 17.3554 -1.26942 -178.775 232.705 -184.311
lowerback 13.5172 1.79152 1.37936
upperback 2.64435 2.53734 0.668464
thorax -4.75466 1.20706 -0.514176
lowerneck -7.57293 1.05478 -5.87356
upperneck 11.0041 1.56739 4.6179
head 4.447 0.790127 2.4767
rclavicle 3.85145e-015 -5.51627e-015
rhumerus -22.326 28.9132 -85.7548
rradius 131.743
rwrist -11.8803
rhand -26.9346 11.7125
rfingers 7.12502
rthumb -0.356896 -18.2669
lclavicle 3.85145e-015 -5.51627e-015
lhumerus -23.8159 -18.3221 88.4655
lradius 134.504
lwrist 9.78446
lhand -20.087 15.2401
lfingers 7.12502
lthumb 6.25582 45.1278
rfemur -2.68939 15.7312 15.9656
rtibia 42.7075
rfoot -29.4435 -2.25764
rtoes -19.3665
lfemur -32.7693 6.65822 -4.30333
ltibia 68.4048
lfoot -3.08357 -2.6179
ltoes -14.7276
2064
root -1.488 17.4531 -1.24757 -178.854 233.538 -184.023
lowerback 13.4044 1.93891 1.507
upperback 2.6142 2.74742 0.641091
thorax -4.71356 1.30919 -0.64697
lowerneck -7.29288 1.16259 -5.89554
upperneck 11.2428 1.71644 4.40956
head 4.46718 0.844101 2.42397
rclavicle -6.44031e-014 1.58158e-014
rhumerus -21.421 28.6405 -85.5786
rradius 131.961
rwrist -12.6046
rhand -27.2216 11.233
rfingers 7.12502
rthumb -0.634153 -18.7458
lclavicle -6.44031e-014 1.58158e-014
lhumerus -22.5061 -17.7707 87.2344
lradius 134.845
lwrist 10.2448
lhand -20.4193 15.7012
lfingers 7.12502
lthumb 5.93503 45.5981
rfemur -2.59641 16.3688 15.5844
rtibia 41.6343
rfoot -28.4248 -2.5093
rtoes -20.382
lfemur -32.964 7.35899 -4.25372
ltibia 68.0573
lfoot -0.502651 -4.49771
ltoes -11.8512
2065
root -1.45182 17.5612 -1.21045 -179.099 234.316 -183.521
lowerback 13.2885 2.10043 1.69975
upperback 2.5739 2.98101 0.526743
thorax -4.67155 1.4219 -0.910479
lowerneck -7.08868 1.22198 -5.76828
upperneck 11.5626 1.79104 4.15472
head 4.53102 0.864684 2.33004
rclavicle 9.28635e-014 -2.14936e-014
rhumerus -20.5004 28.2055 -85.3467
rradius 132.319
rwrist -13.297
rhand -27.5733 10.9215
rfingers 7.12502
rthumb -0.973752 -19.056
lclavicle 9.28635e-014 -2.14936e-014
lhumerus -21.1957 -17.2603 86.0701
lradius 135.134
lwrist 10.7967
lhand -20.4148 15.7037
lfingers 7.12502
lthumb 5.93934 45.6005
rfemur -2.47354 16.9116 15.0114
rtibia 40.5682
rfoot -27.377 -2.75146
rtoes -21.1094
lfemur -33.1032 7.8944 -4.45611
ltibia 67.564
lfoot 1.45468 -5.92186
ltoes -8.97602
2066
root -1.40856 17.6713 -1.16534 -179.418 235.029 -182.938
lowerback 13.3909 2.31508 1.89364
upperback 2.41362 3.29286 0.402681
thorax -4.86994 1.56928 -1.21039
lowerneck -6.94591 1.20818 -5.46888
upperneck 12.1008 1.75949 3.79588
head 4.68057 0.832068 2.17304
rclavicle -3.88873e-014 1.18277e-014
rhumerus -19.7489 27.5311 -85.0408
rradius 132.793
rwrist -13.8169
rhand -27.8859 10.6584
rfingers 7.12502
rthumb -1.27567 -19.3175
lclavicle -3.88873e-014 1.18277e-014
lhumerus -20.0232 -16.8594 85.0112
lradius 135.432
lwrist 11.4317
lhand -20.0822 15.405
lfingers 7.12502
lthumb 6.26042 45.2925
rfemur -2.37857 17.5251 14.3968
rtibia 39.5484
rfoot -26.1974 -3.07116
rtoes -21.1329
lfemur -33.2 8.30656 -4.78115
ltibia 66.9331
lfoot 2.72985 -6.98357
ltoes -6.19793
2067
root -1.35951 17.7786 -1.11922 -179.674 235.69 -182.395
lowerback 13.5443 2.4733 2.04484
upperback 2.26951 3.52856 0.349153
thorax -5.08589 1.67865 -1.40318
lowerneck -6.88246 1.21195 -5.23331
upperneck 12.5612 1.78183 3.33137
head 4.81824 0.81792 1.99633
rclavicle 1.03368e-014 -2.48481e-015
rhumerus -18.7531 26.9279 -84.5735
rradius 133.255
rwrist -14.257
rhand -28.1858 10.7891
rfingers 7.12502
rthumb -1.56532 -19.185
lclavicle 1.03368e-014 -2.48481e-015
lhumerus -18.9245 -16.3318 84.0098
lradius 135.794
lwrist 11.7559
lhand -19.8894 14.9117
lfingers 7.12502
lthumb 6.44662 44.7936
rfemur -2.37177 18.1735 13.8133
rtibia 38.5858
rfoot -24.8804 -3.4707
rtoes -21.196
lfemur -33.2981 8.66538 -5.10641
ltibia 66.1892
lfoot 3.3231 -7.66896
ltoes -4.12198
2068
root -1.30715 17.8849 -1.07386 -179.835 236.159 -181.934
lowerback 13.5996 2.4379 2.27189
upperback 2.25324 3.51314 0.306845
thorax -5.11738 1.66606 -1.5753
lowerneck -6.89274 1.33657 -5.22061
upperneck 12.772 1.9776 3.07992
head 4.87985 0.895243 1.9301
rclavicle 4.93483e-014 5.96354e-015
rhumerus -17.3867 26.5758 -84.0619
rradius 133.736
rwrist -14.7684
rhand -28.4159 11.0842
rfingers 7.12502
rthumb -1.78762 -18.888
lclavicle 4.93483e-014 5.96354e-015
lhumerus -17.7498 -15.6887 82.9678
lradius 136.223
lwrist 11.6697
lhand -20.095 14.8107
lfingers 7.12502
lthumb 6.24808 44.6985
rfemur -2.42541 18.7364 13.3335
rtibia 37.7268
rfoot -23.5638 -3.99116
rtoes -21.2762
lfemur -33.4389 8.86343 -5.37333
ltibia 65.3547
lfoot 3.04534 -7.38666
ltoes -5.31614
2069
root -1.25982 17.9973 -1.01524 -180.495 236.757 -181.088
lowerback 13.6583 2.42733 2.37203
upperback 2.31595 3.50366 0.164254
thorax -5.06841 1.65939 -1.78007
lowerneck -6.81332 1.50935 -5.0416
upperneck 12.9237 2.221 2.78133
head 4.90907 1.00057 1.82315
rclavicle -5.47403e-014 8.15017e-015
rhumerus -16.062 26.1585 -83.5621
rradius 134.32
rwrist -15.3766
rhand -28.2252 11.0147
rfingers 7.12502
rthumb -1.60338 -18.959
lclavicle -5.47403e-014 8.15017e-015
lhumerus -16.7119 -15.016 81.9984
lradius 136.719
lwrist 11.5841
lhand -20.3429 15.0547
lfingers 7.12502
lthumb 6.00877 44.9495
rfemur -2.36091 19.295 12.6295
rtibia 36.9503
rfoot -22.3214 -4.45462
rtoes -20.4008
lfemur -33.2314 8.98737 -5.90547
ltibia 64.4418
lfoot 2.01065 -6.16973
ltoes -8.19313
2070
root -1.21077 18.0989 -0.956843 -180.962 237.361 -180.238
lowerback 13.5452 2.51161 2.34607
upperback 2.2948 3.60448 0.0753536
thorax -5.01987 1.71006 -1.87065
lowerneck -6.72219 1.58665 -4.71131
upperneck 13.0491 2.33525 2.35273
head 4.93801 1.042 1.64316
rclavicle -1.63003e-014 1.35174e-014
rhumerus -14.893 25.4696 -82.9647
rradius 135.054
rwrist -16.011
rhand -27.944 11.1454
rfingers 7.12502
rthumb -1.33186 -18.8301
lclavicle -1.63003e-014 1.35174e-014
lhumerus -15.9282 -14.5133 81.1981
lradius 137.182
lwrist 11.5666
lhand -20.5113 15.0491
lfingers 7.12502
lthumb 5.84616 44.9485
rfemur -2.62295 19.5445 11.8616
rtibia 36.2837
rfoot -20.9848 -5.31984
rtoes -20.2176
lfemur -33.2702 9.14403 -6.44991
ltibia 63.5022
lfoot 0.884408 -4.82497
ltoes -9.48433
2071
root -1.15724 18.1905 -0.903223 -181.369 237.73 -179.488
lowerback 13.5934 2.57327 2.3277
upperback 2.26155 3.68327 0.0378322
thorax -5.07648 1.74754 -1.9168
lowerneck -6.75775 1.58881 -4.41423
upperneck 13.1804 2.34928 2.00507
head 4.99272 1.03876 1.48946
rclavicle 8.46823e-014 -2.10712e-014
rhumerus -13.803 24.6636 -82.2866
rradius 135.794
rwrist -16.5073
rhand -27.8556 11.6272
rfingers 7.12502
rthumb -1.24644 -18.3489
lclavicle 8.46823e-014 -2.10712e-014
lhumerus -15.1964 -14.4318 80.4344
lradius 137.639
lwrist 11.4095
lhand -20.7342 14.8723
lfingers 7.12502
lthumb 5.63101 44.7775
rfemur -2.83651 19.5411 11.2209
rtibia 35.7481
rfoot -19.6962 -6.65775
rtoes -20.79
lfemur -33.4077 9.11469 -6.8927
ltibia 62.5208
lfoot -0.16316 -3.82994
ltoes -8.85258
2072
root -1.10611 18.2831 -0.852055 -182.079 237.996 -178.495
lowerback 13.7835 2.60131 2.08657
upperback 2.22819 3.68942 0.0289044
thorax -5.23074 1.75102 -1.80369
lowerneck -6.71852 1.62332 -4.43721
upperneck 13.2579 2.40726 1.91616
head 5.00927 1.05854 1.46944
rclavicle -7.88181e-014 8.34896e-015
rhumerus -12.9083 24.0767 -81.5624
rradius 136.303
rwrist -16.2583
rhand -28.2211 11.6514
rfingers 7.12502
rthumb -1.59949 -18.3224
lclavicle -7.88181e-014 8.34896e-015
lhumerus -14.5912 -14.4324 79.8038
lradius 138.147
lwrist 11.22
lhand -20.8468 14.6688
lfingers 7.12502
lthumb 5.52228 44.5768
rfemur -2.91545 19.5691 10.4706
rtibia 35.3906
rfoot -18.8855 -8.18451
rtoes -18.7218
lfemur -33.4204 8.91898 -7.4307
ltibia 61.4729
lfoot -0.972913 -2.97906
ltoes -7.11831
2073
root -1.05897 18.3722 -0.801303 -182.979 238.361 -177.237
lowerback 13.9163 2.64756 1.59446
upperback 2.19176 3.67824 -0.017908
thorax -5.37093 1.75114 -1.58364
lowerneck -6.74293 1.70803 -4.52117
upperneck 13.3517 2.53115 1.92093
head 5.03729 1.11358 1.49335
rclavicle -5.81445e-014 3.97569e-015
rhumerus -12.2183 23.6827 -80.9315
rradius 136.663
rwrist -15.6647
rhand -29.1831 11.7678
rfingers 7.12502
rthumb -2.52851 -18.197
lclavicle -5.81445e-014 3.97569e-015
lhumerus -14.1219 -14.3832 79.1521
lradius 138.707
lwrist 11.2316
lhand -20.8848 14.6004
lfingers 7.12502
lthumb 5.48556 44.5094
rfemur -3.14132 19.3675 9.56472
rtibia 35.2692
rfoot -18.2861 -10.2501
rtoes -16.2905
lfemur -33.3804 8.7935 -8.06521
ltibia 60.36
lfoot -1.48192 -1.8157
ltoes -5.49644
2074
root -1.01271 18.4433 -0.746846 -183.457 238.796 -176.419
lowerback 13.9036 2.70127 1.43803
upperback 2.2076 3.71944 -0.109851
thorax -5.34954 1.77374 -1.59849
lowerneck -6.93967 1.74159 -4.40375
upperneck 13.4037 2.57219 1.92386
head 5.08666 1.13972 1.48064
rclavicle 1.25135e-013 -2.18663e-014
rhumerus -11.6743 23.1585 -80.4652
rradius 137.214
rwrist -15.6082
rhand -29.9095 11.8196
rfingers 7.12502
rthumb -3.23007 -18.1357
lclavicle 1.25135e-013 -2.18663e-014
lhumerus -13.6396 -14.7469 78.4309
lradius 139.257
lwrist 10.998
lhand -21.3233 14.3427
lfingers 7.12502
lthumb 5.06215 44.2623
rfemur -3.5202 18.9298 8.94006
rtibia 35.455
rfoot -17.898 -12.5885
rtoes -14.0296
lfemur -33.423 8.73781 -8.40446
ltibia 59.2521
lfoot -1.78064 -0.348736
ltoes -5.56795
2075
root -0.964931 18.4956 -0.696972 -183.692 239.15 -175.797
lowerback 13.8009 2.75683 1.3838
upperback 2.23863 3.77773 -0.192381
thorax -5.25618 1.80434 -1.65809
lowerneck -7.20979 1.72599 -4.3497
upperneck 13.3665 2.54323 2.04304
head 5.12059 1.13835 1.51013
rclavicle 3.26007e-014 -1.15295e-014
rhumerus -11.0615 22.3656 -79.9105
rradius 137.882
rwrist -16.2101
rhand -29.7246 11.2963
rfingers 7.12502
rthumb -3.05151 -18.6616
lclavicle 3.26007e-014 -1.15295e-014
lhumerus -13.2988 -15.564 77.9397
lradius 139.815
lwrist 10.3075
lhand -22.0547 14.0628
lfingers 7.12502
lthumb 4.35592 43.998
rfemur -4.05682 18.3484 8.44328
rtibia 36.0205
rfoot -18.1451 -14.5195
rtoes -10.6604
lfemur -33.5872 8.57132 -8.57093
ltibia 58.1372
lfoot -1.84148 1.01305
ltoes -6.23775
